<?xml version="1.0" encoding="iso-8859-1"?>
<!-- Generator: Adobe Illustrator 19.0.0, SVG Export Plug-In . SVG Version: 6.00 Build 0)  -->
<svg version="1.1" id="Capa_1" xmlns="http://www.w3.org/2000/svg" xmlns:xlink="http://www.w3.org/1999/xlink" x="0px" y="0px"
	 viewBox="0 0 512 512" style="enable-background:new 0 0 512 512;" xml:space="preserve">
<path style="fill:#FFDB0C;" d="M466.089,139.805c-25.928,25.928-67.967,25.928-93.895,0s-25.928-67.967,0-93.895L326.284,0
	L0,326.284l45.911,45.911c25.928-25.928,67.967-25.928,93.895,0s25.928,67.967,0,93.895l45.91,45.91L512,185.716L466.089,139.805z"
	/>
<path style="fill:#FBBF00;" d="M466.089,139.805c-25.928,25.928-67.967,25.928-93.895,0L139.806,372.194
	c25.928,25.928,25.928,67.967,0,93.895L185.716,512L512,185.716L466.089,139.805z"/>
<g>
	<path style="fill:#FFFFFF;" d="M180.791,284.996l45.223,24.408l-24.559-45.072l15.35-15.348l33.615,72.698l-12.127,12.128
		l-72.924-33.391L180.791,284.996z"/>
	<path style="fill:#FFFFFF;" d="M281.416,290.688l-53.158-53.158l14.6-14.6l53.158,53.158L281.416,290.688z"/>
	<path style="fill:#FFFFFF;" d="M312.635,259.468l-53.156-53.157l22.908-22.91c10.406-10.406,27.254-8.535,36.313,0.523
		c9.434,9.434,11.381,25.457,0.898,35.938l-8.686,8.686l16.322,16.322L312.635,259.468z M298.186,215.818l7.711-7.711
		c1.797-1.797,2.246-5.091-2.021-9.358c-4.418-4.417-7.936-3.444-9.732-1.647l-7.338,7.338L298.186,215.818z"/>
</g>
<g>
</g>
<g>
</g>
<g>
</g>
<g>
</g>
<g>
</g>
<g>
</g>
<g>
</g>
<g>
</g>
<g>
</g>
<g>
</g>
<g>
</g>
<g>
</g>
<g>
</g>
<g>
</g>
<g>
</g>
</svg>
