<svg style="display:none;" xmlns="http://www.w3.org/2000/svg">

	<!-- navigation: top bar -->
	<symbol id="user" viewBox="-42 0 512 512.002">
		<g>
			<path d="m210.351562 246.632812c33.882813 0 63.222657-12.152343 87.195313-36.128906 23.972656-23.972656 36.125-53.304687 36.125-87.191406 0-33.875-12.152344-63.210938-36.128906-87.191406-23.976563-23.96875-53.3125-36.121094-87.191407-36.121094-33.886718 0-63.21875 12.152344-87.191406 36.125s-36.128906 53.308594-36.128906 87.1875c0 33.886719 12.15625 63.222656 36.132812 87.195312 23.976563 23.96875 53.3125 36.125 87.1875 36.125zm0 0"/><path d="m426.128906 393.703125c-.691406-9.976563-2.089844-20.859375-4.148437-32.351563-2.078125-11.578124-4.753907-22.523437-7.957031-32.527343-3.308594-10.339844-7.808594-20.550781-13.371094-30.335938-5.773438-10.15625-12.554688-19-20.164063-26.277343-7.957031-7.613282-17.699219-13.734376-28.964843-18.199219-11.226563-4.441407-23.667969-6.691407-36.976563-6.691407-5.226563 0-10.28125 2.144532-20.042969 8.5-6.007812 3.917969-13.035156 8.449219-20.878906 13.460938-6.707031 4.273438-15.792969 8.277344-27.015625 11.902344-10.949219 3.542968-22.066406 5.339844-33.039063 5.339844-10.972656 0-22.085937-1.796876-33.046874-5.339844-11.210938-3.621094-20.296876-7.625-26.996094-11.898438-7.769532-4.964844-14.800782-9.496094-20.898438-13.46875-9.75-6.355468-14.808594-8.5-20.035156-8.5-13.3125 0-25.75 2.253906-36.972656 6.699219-11.257813 4.457031-21.003906 10.578125-28.96875 18.199219-7.605469 7.28125-14.390625 16.121094-20.15625 26.273437-5.558594 9.785157-10.058594 19.992188-13.371094 30.339844-3.199219 10.003906-5.875 20.945313-7.953125 32.523437-2.058594 11.476563-3.457031 22.363282-4.148437 32.363282-.679688 9.796875-1.023438 19.964844-1.023438 30.234375 0 26.726562 8.496094 48.363281 25.25 64.320312 16.546875 15.746094 38.441406 23.734375 65.066406 23.734375h246.53125c26.625 0 48.511719-7.984375 65.0625-23.734375 16.757813-15.945312 25.253906-37.585937 25.253906-64.324219-.003906-10.316406-.351562-20.492187-1.035156-30.242187zm0 0"/>
		</g>
	</symbol>
	<symbol id="star" viewBox="0 0 512.001 512.001">
		<path d="M511.266,197.256c-1.764-5.431-6.458-9.388-12.108-10.209l-158.722-23.065L269.452,20.155
			c-2.527-5.12-7.741-8.361-13.451-8.361c-5.709,0-10.924,3.242-13.451,8.361l-70.988,143.828L12.843,187.047
			c-5.65,0.821-10.344,4.779-12.108,10.209c-1.765,5.43-0.293,11.391,3.795,15.376l114.848,111.955L92.27,482.67
			c-0.965,5.627,1.349,11.315,5.968,14.67c4.618,3.355,10.74,3.798,15.797,1.142L256,423.846l141.961,74.637
			c2.195,1.154,4.591,1.723,6.979,1.723c3.11,0,6.206-0.966,8.818-2.865c4.619-3.356,6.933-9.043,5.968-14.671L392.61,324.587
			l114.86-111.954C511.559,208.647,513.031,202.686,511.266,197.256z M366.023,308.608c-3.536,3.446-5.15,8.412-4.314,13.278
			l23.311,135.898l-122.038-64.162c-4.37-2.297-9.591-2.297-13.961,0l-122.045,64.163l23.304-135.9
			c0.834-4.866-0.779-9.83-4.313-13.276l-98.731-96.244l136.445-19.829c4.886-0.71,9.108-3.778,11.294-8.205L256,60.685
			l61.023,123.645c2.186,4.427,6.408,7.496,11.294,8.206l136.447,19.828L366.023,308.608z"/>
	</symbol>
	<symbol id="phone" viewBox="0 0 384 384">
		<path d="M362.667,266.667c-26.56,0-52.267-4.267-76.16-12.16c-7.36-2.347-15.787-0.64-21.653,5.227l-46.933,47.04
			c-60.48-30.72-109.867-80.107-140.587-140.48l46.933-47.147c5.867-5.867,7.573-14.293,5.227-21.653
			c-7.893-23.893-12.16-49.6-12.16-76.16C117.333,9.493,107.84,0,96,0H21.333C9.6,0,0,9.493,0,21.333
			C0,221.653,162.347,384,362.667,384c11.84,0,21.333-9.493,21.333-21.333V288C384,276.16,374.507,266.667,362.667,266.667z"/>
	</symbol>
	<symbol id="search" viewBox="0 0 192.904 192.904">
		<path d="M190.707,180.101l-47.078-47.077c11.702-14.072,18.752-32.142,18.752-51.831C162.381,36.423,125.959,0,81.191,0
		C36.422,0,0,36.423,0,81.193c0,44.767,36.422,81.187,81.191,81.187c19.688,0,37.759-7.049,51.831-18.751l47.079,47.078
		c1.464,1.465,3.384,2.197,5.303,2.197c1.919,0,3.839-0.732,5.304-2.197C193.637,187.778,193.637,183.03,190.707,180.101z M15,81.193
		C15,44.694,44.693,15,81.191,15c36.497,0,66.189,29.694,66.189,66.193c0,36.496-29.692,66.187-66.189,66.187
		C44.693,147.38,15,117.689,15,81.193z"/>
	</symbol>

	<!-- rubrics -->
	<symbol id="earrings" viewBox="0 -14 409.99253 409">
		<g>
			<path d="m300.566406 210.742188c-60.335937 0-109.417968-49.085938-109.417968-109.417969 0-43.46875 25.769531-82.824219 65.648437-100.257813 2.105469-.914062 4.546875-.710937 6.46875.539063 1.929687 1.261719 3.09375 3.410156 3.09375 5.714843v35.605469c0 2.222657-1.082031 4.304688-2.898437 5.585938-17.210938 12.117187-27.484376 31.859375-27.484376 52.8125 0 35.613281 28.976563 64.589843 64.59375 64.589843 35.617188 0 64.59375-28.976562 64.59375-64.589843 0-20.953125-10.277343-40.699219-27.488281-52.8125-1.8125-1.28125-2.894531-3.367188-2.894531-5.585938v-35.605469c0-2.304687 1.164062-4.453124 3.089844-5.714843 1.929687-1.257813 4.367187-1.457031 6.472656-.539063 39.878906 17.433594 65.648438 56.789063 65.648438 100.257813-.007813 60.332031-49.09375 109.417969-109.425782 109.417969zm-47.863281-192.335938c-29.410156 16.976562-47.902344 48.472656-47.902344 82.917969 0 52.804687 42.960938 95.765625 95.765625 95.765625 52.804688 0 95.765625-42.960938 95.765625-95.765625 0-34.445313-18.492187-65.941407-47.902343-82.917969v21.078125c19.089843 14.796875 30.382812 37.652344 30.382812 61.839844 0 43.144531-35.097656 78.242187-78.246094 78.242187-43.148437 0-78.246094-35.097656-78.246094-78.242187 0-24.191407 11.292969-47.042969 30.382813-61.839844zm0 0"/><path d="m150.378906 203.730469h-81.917968c-3.769532 0-6.828126-3.054688-6.828126-6.824219 0-3.773438 3.058594-6.828125 6.828126-6.828125h81.917968c3.769532 0 6.828125 3.054687 6.828125 6.828125 0 3.769531-3.058593 6.824219-6.828125 6.824219zm0 0"/><path d="m109.417969 381.410156c-60.332031 0-109.417969-49.085937-109.417969-109.417968 0-43.472657 25.769531-82.824219 65.648438-100.261719 2.113281-.914063 4.550781-.710938 6.472656.542969 1.925781 1.261718 3.089844 3.410156 3.089844 5.714843v35.605469c0 2.222656-1.082032 4.304688-2.894532 5.582031-17.210937 12.117188-27.488281 31.859375-27.488281 52.8125 0 35.617188 28.976563 64.589844 64.59375 64.589844s64.59375-28.972656 64.59375-64.589844c0-20.953125-10.273437-40.695312-27.484375-52.8125-1.816406-1.277343-2.894531-3.363281-2.894531-5.582031v-35.605469c0-2.304687 1.160156-4.453125 3.089843-5.714843 1.925782-1.261719 4.363282-1.460938 6.46875-.542969 39.878907 17.4375 65.652344 56.789062 65.652344 100.261719-.007812 60.332031-49.09375 109.417968-109.429687 109.417968zm-47.863281-192.339844c-29.40625 16.980469-47.902344 48.472657-47.902344 82.921876 0 52.804687 42.960937 95.765624 95.765625 95.765624 52.808593 0 95.769531-42.960937 95.769531-95.765624 0-34.449219-18.496094-65.941407-47.90625-82.921876v21.082032c19.09375 14.796875 30.386719 37.648437 30.386719 61.839844 0 43.140624-35.101563 78.242187-78.25 78.242187-43.144531 0-78.246094-35.097656-78.246094-78.242187 0-24.191407 11.292969-47.042969 30.382813-61.839844zm0 0"/>
		</g>
	</symbol>
	<symbol id="kolies" viewBox="0 0 128 128">
		<g>
			<path d="m126.335 10.223a4.451 4.451 0 0 0 -6.26.68l-9.947 12.374a102.522 102.522 0 0 1 -40.378 30.338v-.646a5.75 5.75 0 1 0 -11.5 0v.646a102.522 102.522 0 0 1 -40.378-30.338l-9.946-12.377a4.455 4.455 0 0 0 -7.926 2.794v4.137a4.469 4.469 0 0 0 .982 2.79l7.927 9.861a113.817 113.817 0 0 0 49.341 35.474v11.2l-8.588 5.093a8.73 8.73 0 0 0 -3.047 3.064c-.031.044-.066.083-.093.13s-.042.1-.064.145a8.735 8.735 0 0 0 -1.083 4.187v14.381a8.741 8.741 0 0 0 1.082 4.185 1.583 1.583 0 0 0 .065.146c.014.026.036.043.051.067a8.743 8.743 0 0 0 3.089 3.129l9.875 5.856a8.742 8.742 0 0 0 8.926 0l9.875-5.856a8.743 8.743 0 0 0 3.088-3.13.827.827 0 0 0 .051-.066c.027-.047.043-.1.065-.145a8.744 8.744 0 0 0 1.082-4.186v-14.384a8.735 8.735 0 0 0 -1.083-4.187c-.022-.048-.037-.1-.064-.145s-.061-.085-.092-.129a8.728 8.728 0 0 0 -3.048-3.065l-8.587-5.093v-11.2a113.826 113.826 0 0 0 49.342-35.474l7.924-9.86a4.463 4.463 0 0 0 .984-2.788v-4.137a4.428 4.428 0 0 0 -1.665-3.471zm-62.335 96.591-7.125-4.227v-11.249l7.125-4.227 7.125 4.227v11.249zm-2.25-53.845a2.25 2.25 0 1 1 4.5 0v22.49c-.259-.069-.522-.11-.785-.155-.107-.018-.212-.049-.32-.063a8.663 8.663 0 0 0 -2.29 0c-.108.014-.213.045-.32.063-.263.045-.526.086-.785.155zm-50.113-24.68-7.928-9.862a.953.953 0 0 1 -.209-.6v-4.133a.949.949 0 0 1 .356-.743.948.948 0 0 1 .595-.21.923.923 0 0 1 .105 0 .946.946 0 0 1 .644.359l9.946 12.374a106.032 106.032 0 0 0 43.104 31.933v4.825a110.312 110.312 0 0 1 -46.613-33.943zm49.61 51.155.073-.044a5.253 5.253 0 0 1 .928-.421v5.1l-7.142 4.236-4.406-2.508a5.079 5.079 0 0 1 .746-.551zm-12.279 25.633a5.169 5.169 0 0 1 -.093-.924v-14.381a5.16 5.16 0 0 1 .093-.924l4.407 2.51v11.209zm2.479 3.593a5.222 5.222 0 0 1 -.747-.552l4.408-2.51 7.142 4.236v5.1a5.258 5.258 0 0 1 -.928-.422zm15.231 5.856a5.258 5.258 0 0 1 -.928.422v-5.1l7.142-4.236 4.408 2.51a5.222 5.222 0 0 1 -.747.552zm12.354-25.678a5.16 5.16 0 0 1 .093.924v14.381a5.169 5.169 0 0 1 -.093.924l-4.407-2.51v-11.209zm-1.732-3.041-4.407 2.51-7.143-4.236v-5.1c.034.012.068.022.1.035.063.023.128.039.19.065.087.037.17.087.255.129.128.063.259.12.383.193l.073.044 9.8 5.812a5.079 5.079 0 0 1 .749.548zm47.2-67.976a.948.948 0 0 1 -.211.6l-7.925 9.861a110.321 110.321 0 0 1 -46.614 33.94v-4.825a106.032 106.032 0 0 0 43.106-31.936l9.944-12.371a.951.951 0 0 1 1.34-.147.949.949 0 0 1 .356.743z"/>
		</g>
	</symbol>
	<symbol id="necklaces" viewBox="-65 0 430 430.08242">
		<g>
			<path d="m150.230469 204.800781c-2.386719 0-4.601563-1.242187-5.835938-3.28125l-116.050781-191.148437c-1.960938-3.222656-.933594-7.421875 2.292969-9.378906 3.226562-1.945313 7.425781-.9257818 9.371093 2.292968l110.222657 181.539063 110.21875-181.539063c1.949219-3.222656 6.152343-4.238281 9.371093-2.292968 3.230469 1.957031 4.253907 6.15625 2.296876 9.378906l-116.054688 191.148437c-1.234375 2.039063-3.449219 3.28125-5.832031 3.28125zm0 0"/><path d="m159.78125 325.867188c-.898438 0-1.8125-.179688-2.683594-.554688-3.46875-1.484375-5.074218-5.496094-3.589844-8.964844l133.808594-312.210937c1.480469-3.460938 5.519532-5.0625 8.960938-3.582031 3.464844 1.480468 5.070312 5.496093 3.585937 8.960937l-133.804687 312.210937c-1.109375 2.589844-3.628906 4.140626-6.277344 4.140626zm0 0"/><path d="m140.65625 325.828125c-2.648438 0-5.164062-1.550781-6.273438-4.140625l-133.789062-312.167969c-1.484375-3.46875.121094-7.480469 3.589844-8.964843 3.425781-1.484376 7.472656.113281 8.960937 3.585937l133.785157 312.167969c1.488281 3.46875-.117188 7.480468-3.585938 8.964844-.875.375-1.789062.554687-2.6875.554687zm0 0"/><path d="m150.230469 245.761719c-15.0625 0-27.308594-12.25-27.308594-27.304688 0-15.058593 12.246094-27.308593 27.308594-27.308593 15.058593 0 27.304687 12.25 27.304687 27.308593 0 15.054688-12.246094 27.304688-27.304687 27.304688zm0-40.960938c-7.527344 0-13.65625 6.125-13.65625 13.65625 0 7.527344 6.128906 13.652344 13.65625 13.652344 7.523437 0 13.652343-6.125 13.652343-13.652344 0-7.53125-6.128906-13.65625-13.652343-13.65625zm0 0"/><path d="m163.882812 430.082031h-27.308593c-3.773438 0-6.824219-3.054687-6.824219-6.828125v-102.398437c0-3.769531 3.050781-6.828125 6.824219-6.828125h27.308593c3.773438 0 6.828126 3.058594 6.828126 6.828125v102.398437c0 3.773438-3.054688 6.828125-6.828126 6.828125zm-20.480468-13.652343h13.652344v-88.746094h-13.652344zm0 0"/>
		</g>
	</symbol>
	<symbol id="rings" viewBox="0 0 512 512">
		<g>
			<path d="M256,68.267C114.842,68.267,0,152.482,0,256s114.842,187.733,256,187.733S512,359.518,512,256S397.158,68.267,256,68.267
				z M256,426.667c-131.746,0-238.933-76.561-238.933-170.667S124.254,85.333,256,85.333S494.933,161.894,494.933,256
				S387.746,426.667,256,426.667z"/>
			<path d="M256,332.8c110.08,0,196.267-50.603,196.267-115.2S366.08,102.4,256,102.4S59.733,153.003,59.733,217.6
				S145.92,332.8,256,332.8z M76.8,217.6c0-54.11,80.393-98.133,179.2-98.133S435.2,163.49,435.2,217.6
				c0,0.589-0.145,1.152-0.162,1.707c-31.07-44.578-100.531-74.24-179.038-74.24s-147.968,29.662-179.038,74.24
				C76.962,218.718,76.8,218.155,76.8,217.6z M256,162.133c80.111,0,151.893,33.869,172.86,80.947
				c-20.574,41.779-90.163,72.653-172.86,72.653S103.714,284.86,83.14,243.081C104.107,196.002,175.889,162.133,256,162.133z"/>
			<path d="M268.8,371.2h-4.267v-4.267c0-4.713-3.82-8.533-8.533-8.533s-8.533,3.82-8.533,8.533v4.267H243.2
				c-4.713,0-8.533,3.82-8.533,8.533s3.82,8.533,8.533,8.533h4.267v4.267c0,4.713,3.82,8.533,8.533,8.533s8.533-3.82,8.533-8.533
				v-4.267h4.267c4.713,0,8.533-3.82,8.533-8.533S273.513,371.2,268.8,371.2z"/>
			<path d="M366.933,354.133h-4.267v-4.267c0-4.713-3.82-8.533-8.533-8.533s-8.533,3.821-8.533,8.533v4.267h-4.267
				c-4.713,0-8.533,3.82-8.533,8.533s3.821,8.533,8.533,8.533h4.267v4.267c0,4.713,3.82,8.533,8.533,8.533s8.533-3.82,8.533-8.533
				V371.2h4.267c4.713,0,8.533-3.82,8.533-8.533S371.646,354.133,366.933,354.133z"/>
			<path d="M170.667,354.133H166.4v-4.267c0-4.713-3.82-8.533-8.533-8.533s-8.533,3.821-8.533,8.533v4.267h-4.267
				c-4.713,0-8.533,3.82-8.533,8.533s3.82,8.533,8.533,8.533h4.267v4.267c0,4.713,3.821,8.533,8.533,8.533s8.533-3.82,8.533-8.533
				V371.2h4.267c4.713,0,8.533-3.82,8.533-8.533S175.38,354.133,170.667,354.133z"/>
			<path d="M452.267,302.933H448v-4.267c0-4.713-3.82-8.533-8.533-8.533s-8.533,3.82-8.533,8.533v4.267h-4.267
				c-4.713,0-8.533,3.82-8.533,8.533s3.82,8.533,8.533,8.533h4.267v4.267c0,4.713,3.82,8.533,8.533,8.533s8.533-3.82,8.533-8.533
				V320h4.267c4.713,0,8.533-3.82,8.533-8.533S456.979,302.933,452.267,302.933z"/>
			<path d="M85.333,302.933h-4.267v-4.267c0-4.713-3.82-8.533-8.533-8.533S64,293.954,64,298.667v4.267h-4.267
				c-4.713,0-8.533,3.82-8.533,8.533S55.021,320,59.733,320H64v4.267c0,4.713,3.82,8.533,8.533,8.533s8.533-3.82,8.533-8.533V320
				h4.267c4.713,0,8.533-3.82,8.533-8.533S90.046,302.933,85.333,302.933z"/>
		</g>
	</symbol>
	<symbol id="rocks" viewBox="-47 0 404 404.58752">
		<g>
			<path d="m116.347656 404.585938c-2.460937 0-4.726562-1.316407-5.941406-3.453126l-109.226562-192.449218c-1.1992192-2.117188-1.179688-4.710938.039062-6.808594l109.226562-187.246094c2.457032-4.195312 9.347657-4.195312 11.800782 0l42.460937 72.796875c1.898438 3.253907.800781 7.433594-2.453125 9.335938-3.246094 1.898437-7.433594.800781-9.339844-2.457031l-36.570312-62.6875-101.351562 173.746093 101.355468 178.570313 101.351563-178.570313-26.683594-45.746093c-1.894531-3.253907-.796875-7.433594 2.457031-9.335938 3.253906-1.890625 7.433594-.792969 9.339844 2.457031l28.660156 49.136719c1.222656 2.097656 1.242188 4.691406.039063 6.808594l-109.226563 192.445312c-1.210937 2.140625-3.480468 3.457032-5.9375 3.457032zm0 0"/><path d="m225.574219 213.96875h-218.453125c-3.773438 0-6.828125-3.058594-6.828125-6.828125s3.054687-6.824219 6.828125-6.824219h218.453125c3.773437 0 6.828125 3.054688 6.828125 6.824219s-3.054688 6.828125-6.828125 6.828125zm0 0"/><path d="m116.347656 404.585938c-.035156 0-.074218 0-.105468 0-3.128907-.046876-5.820313-2.210938-6.539063-5.253907l-45.515625-192.449219c-.867188-3.664062 1.40625-7.347656 5.074219-8.210937 3.695312-.859375 7.347656 1.398437 8.21875 5.074219l39.308593 166.21875 44.976563-166.429688c.988281-3.644531 4.761719-5.789062 8.375-4.808594 3.640625.984376 5.792969 4.730469 4.8125 8.367188l-52.015625 192.449219c-.804688 2.980469-3.511719 5.042969-6.589844 5.042969zm0 0"/><path d="m70.839844 212.140625c-.519532 0-1.046875-.054687-1.578125-.179687-3.667969-.867188-5.941407-4.546876-5.074219-8.214844l45.511719-192.445313c.71875-3.042969 3.414062-5.207031 6.539062-5.257812 3.203125.210937 5.886719 2.03125 6.703125 5.046875l30.40625 112.503906c.976563 3.640625-1.175781 7.386719-4.816406 8.367188-3.589844.976562-7.382812-1.164063-8.371094-4.808594l-23.371094-86.484375-39.308593 166.21875c-.746094 3.140625-3.546875 5.253906-6.640625 5.253906zm0 0"/><path d="m167.546875 230.507812c-3.207031 0-5.980469-2.230468-6.667969-5.359374l-13.832031-62.886719-62.886719-13.835938c-3.132812-.683593-5.359375-3.457031-5.359375-6.664062s2.226563-5.980469 5.359375-6.667969l62.886719-13.835938 13.832031-62.882812c.6875-3.128906 3.460938-5.359375 6.667969-5.359375s5.980469 2.230469 6.667969 5.359375l13.832031 62.882812 62.886719 13.835938c3.132812.6875 5.359375 3.460938 5.359375 6.667969s-2.226563 5.980469-5.359375 6.664062l-62.886719 13.835938-13.832031 62.886719c-.6875 3.128906-3.460938 5.359374-6.667969 5.359374zm-50.148437-88.746093 36.839843 8.105469c2.601563.570312 4.628907 2.597656 5.203125 5.199218l8.105469 36.84375 8.105469-36.84375c.574218-2.597656 2.601562-4.628906 5.203125-5.199218l36.839843-8.105469-36.839843-8.109375c-2.601563-.566406-4.628907-2.597656-5.203125-5.199219l-8.105469-36.84375-8.105469 36.84375c-.574218 2.601563-2.601562 4.632813-5.203125 5.199219zm0 0"/><path d="m256.292969 106.027344c-3.207031 0-5.980469-2.230469-6.664063-5.359375l-7.386718-33.59375-33.601563-7.394531c-3.132813-.683594-5.359375-3.460938-5.359375-6.664063s2.226562-5.980469 5.359375-6.667969l33.601563-7.394531 7.386718-33.59375c.683594-3.128906 3.457032-5.359375 6.664063-5.359375s5.980469 2.230469 6.667969 5.359375l7.386718 33.59375 33.601563 7.394531c3.132812.6875 5.359375 3.464844 5.359375 6.667969s-2.226563 5.980469-5.359375 6.664063l-33.601563 7.394531-7.386718 33.59375c-.6875 3.128906-3.460938 5.359375-6.667969 5.359375zm-14.417969-53.011719 7.558594 1.664063c2.601562.570312 4.628906 2.597656 5.203125 5.199218l1.660156 7.542969 1.660156-7.542969c.574219-2.601562 2.597657-4.628906 5.199219-5.199218l7.5625-1.664063-7.5625-1.664063c-2.597656-.570312-4.625-2.601562-5.199219-5.203124l-1.660156-7.542969-1.660156 7.542969c-.574219 2.601562-2.601563 4.632812-5.203125 5.203124zm0 0"/>
		</g>
	</symbol>
	<symbol id="watches" viewBox="-61 0 395 395.94667">
		<g>
			<path d="m190.398438 361.8125c-1.679688 0-3.320313-.621094-4.589844-1.773438-1.578125-1.433593-2.398438-3.523437-2.210938-5.648437l4.898438-55.765625c.332031-3.753906 3.605468-6.480469 7.398437-6.203125 3.753907.328125 6.535157 3.644531 6.203125 7.398437l-4.113281 46.804688 13.746094-2.5625 17.433593-68.410156c.191407-.773438.527344-1.503906.972657-2.164063l13.601562-19.917969c9.453125-13.828124 15.117188-29.976562 16.378907-46.699218.359374-4.765625.359374-9.597656 0-14.363282-1.257813-16.71875-6.925782-32.871093-16.371094-46.695312l-13.609375-19.917969c-.445313-.660156-.78125-1.386719-.972657-2.164062l-17.433593-68.414063-13.746094-2.5625 4.097656 46.617188c.332031 3.753906-2.445312 7.066406-6.199219 7.394531-3.765624.324219-7.066406-2.441406-7.402343-6.203125l-4.882813-55.570312c-.1875-2.128907.632813-4.21875 2.210938-5.652344 1.582031-1.433594 3.722656-2.058594 5.839844-1.65625l26.875 5.011718c2.613281.484376 4.707031 2.445313 5.359374 5.019532l18.214844 71.476562 12.917969 18.914063c10.800781 15.804687 17.273437 34.261719 18.714844 53.375.414062 5.445312.414062 10.96875 0 16.414062-1.441407 19.109375-7.914063 37.570313-18.71875 53.378907l-12.914063 18.914062-18.214844 71.472656c-.652343 2.574219-2.746093 4.535156-5.359374 5.019532l-26.875 5.011718c-.417969.085938-.839844.121094-1.25.121094zm0 0"/><path d="m81.175781 361.265625c-.410156 0-.832031-.039063-1.257812-.117187l-23.925781-4.460938c-2.613282-.484375-4.707032-2.445312-5.363282-5.023438l-18.210937-71.46875-12.921875-18.921874c-10.800782-15.808594-17.273438-34.261719-18.714844-53.371094-.410156-5.449219-.410156-10.972656 0-16.417969 1.441406-19.113281 7.914062-37.570313 18.722656-53.375l12.914063-18.914063 18.210937-71.472656c.65625-2.578125 2.746094-4.539062 5.363282-5.023437l20.410156-3.804688c3.753906-.707031 7.273437 1.757813 7.96875 5.460938.683594 3.707031-1.753906 7.269531-5.460938 7.957031l-16.125 3.007812-17.4375 68.414063c-.191406.773437-.527344 1.503906-.972656 2.164063l-13.597656 19.914062c-9.453125 13.828125-15.121094 29.976562-16.382813 46.699219-.359375 4.765625-.359375 9.59375 0 14.363281 1.261719 16.71875 6.929688 32.867188 16.375 46.695312l13.605469 19.917969c.449219.664063.78125 1.390625.972656 2.164063l17.433594 68.410156 19.640625 3.664062c3.707031.6875 6.148437 4.253907 5.460937 7.960938-.613281 3.28125-3.480468 5.578125-6.707031 5.578125zm0 0"/><path d="m81.171875 106.21875c-3.773437 0-6.828125-3.054688-6.828125-6.824219v-63.773437c0-19.640625 15.980469-35.621094 35.621094-35.621094h51.640625c19.640625 0 35.617187 15.980469 35.617187 35.621094v61.203125c0 3.769531-3.050781 6.824219-6.824218 6.824219-3.773438 0-6.828126-3.054688-6.828126-6.824219v-61.203125c0-12.113282-9.851562-21.96875-21.964843-21.96875h-51.640625c-12.113282 0-21.96875 9.855468-21.96875 21.96875v63.773437c0 3.769531-3.050782 6.824219-6.824219 6.824219zm0 0"/><path d="m161.605469 395.945312h-51.640625c-19.640625 0-35.621094-15.976562-35.621094-35.617187v-61c0-3.769531 3.054688-6.828125 6.828125-6.828125s6.824219 3.058594 6.824219 6.828125v61c0 12.113281 9.855468 21.964844 21.96875 21.964844h51.640625c12.113281 0 21.964843-9.851563 21.964843-21.964844v-57.921875c0-3.769531 3.054688-6.828125 6.828126-6.828125 3.773437 0 6.824218 3.058594 6.824218 6.828125v57.921875c0 19.640625-15.980468 35.617187-35.617187 35.617187zm0 0"/><path d="m138.261719 319.234375c-65.359375 0-118.53125-53.628906-118.53125-119.539063 0-65.914062 53.171875-119.542968 118.53125-119.542968 65.363281 0 118.535156 53.628906 118.535156 119.542968 0 65.910157-53.171875 119.539063-118.535156 119.539063zm0-225.425781c-57.832031 0-104.878907 47.5-104.878907 105.886718 0 58.386719 47.046876 105.886719 104.878907 105.886719 57.835937 0 104.882812-47.5 104.882812-105.886719 0-58.386718-47.046875-105.886718-104.882812-105.886718zm0 0"/><path d="m135.785156 129.707031c-3.773437 0-6.828125-3.058593-6.828125-6.828125v-34.132812c0-3.769532 3.054688-6.824219 6.828125-6.824219 3.773438 0 6.824219 3.054687 6.824219 6.824219v34.132812c0 3.769532-3.050781 6.828125-6.824219 6.828125zm0 0"/><path d="m135.785156 314.027344c-3.773437 0-6.828125-3.058594-6.828125-6.828125v-27.304688c0-3.769531 3.054688-6.828125 6.828125-6.828125 3.773438 0 6.824219 3.058594 6.824219 6.828125v27.304688c0 3.769531-3.050781 6.828125-6.824219 6.828125zm0 0"/><path d="m60.691406 204.800781h-34.132812c-3.773438 0-6.828125-3.058593-6.828125-6.828125 0-3.769531 3.054687-6.824218 6.828125-6.824218h34.132812c3.773438 0 6.824219 3.054687 6.824219 6.824218 0 3.769532-3.050781 6.828125-6.824219 6.828125zm0 0"/><path d="m245.011719 204.800781h-34.132813c-3.773437 0-6.828125-3.058593-6.828125-6.828125 0-3.769531 3.054688-6.824218 6.828125-6.824218h34.132813c3.773437 0 6.824219 3.054687 6.824219 6.824218 0 3.769532-3.050782 6.828125-6.824219 6.828125zm0 0"/><path d="m213.230469 281.824219c-1.742188 0-3.480469-.660157-4.8125-1.988281l-24.207031-24.070313c-2.671876-2.65625-2.6875-6.980469-.027344-9.652344 2.660156-2.667969 6.980468-2.691406 9.652344-.027343l24.207031 24.070312c2.671875 2.65625 2.6875 6.980469.027343 9.652344-1.335937 1.34375-3.085937 2.015625-4.839843 2.015625zm0 0"/><path d="m82.542969 151.847656c-1.742188 0-3.480469-.660156-4.8125-1.988281l-24.207031-24.070313c-2.671876-2.65625-2.6875-6.980468-.027344-9.652343 2.65625-2.671875 6.980468-2.6875 9.652344-.027344l24.207031 24.070313c2.671875 2.65625 2.6875 6.980468.027343 9.652343-1.332031 1.34375-3.085937 2.015625-4.839843 2.015625zm0 0"/><path d="m189.023438 151.847656c-1.753907 0-3.507813-.671875-4.839844-2.015625-2.660156-2.671875-2.648438-6.996093.027344-9.652343l24.207031-24.070313c2.671875-2.664063 6.992187-2.652344 9.652343.027344 2.660157 2.671875 2.648438 6.996093-.027343 9.652343l-24.207031 24.070313c-1.332032 1.328125-3.070313 1.988281-4.8125 1.988281zm0 0"/><path d="m58.335938 281.824219c-1.75 0-3.507813-.671875-4.839844-2.015625-2.660156-2.671875-2.644532-6.996094.027344-9.652344l24.207031-24.070312c2.671875-2.664063 6.996093-2.652344 9.652343.027343 2.664063 2.671875 2.648438 6.996094-.027343 9.652344l-24.207031 24.070313c-1.332032 1.328124-3.074219 1.988281-4.8125 1.988281zm0 0"/><path d="m163.082031 225.28125c-1.425781 0-2.859375-.445312-4.085937-1.367188l-27.304688-20.480468c-1.589844-1.1875-2.574218-3.003906-2.714844-4.976563-.140624-1.972656.578126-3.910156 1.980469-5.308593l27.304688-27.308594c2.667969-2.664063 6.988281-2.664063 9.652343 0 2.667969 2.667968 2.667969 6.988281 0 9.652344l-21.738281 21.742187 21.007813 15.757813c3.019531 2.257812 3.632812 6.539062 1.367187 9.558593-1.339843 1.785157-3.386719 2.730469-5.46875 2.730469zm0 0"/>
	    </g>
	</symbol>
	<symbol id="wedding" viewBox="0 -11 412.58667 412">
		<g>
			<path d="m188.753906 257.398438c-3.214844 0-6.074218-2.273438-6.699218-5.546876-1.046876-5.480468-1.574219-11.105468-1.574219-16.71875 0-40.019531 26.953125-75.253906 65.546875-85.6875 3.605468-.964843 7.386718 1.167969 8.371094 4.8125.980468 3.640626-1.171876 7.386719-4.8125 8.375-32.644532 8.820313-55.453126 38.632813-55.453126 72.496094 0 4.761719.449219 9.527344 1.332032 14.160156.707031 3.707032-1.726563 7.28125-5.425782 7.988282-.433593.082031-.867187.121094-1.285156.121094zm24.8125-.066407c-2.992187 0-5.738281-1.984375-6.574218-5.019531-1.53125-5.574219-2.3125-11.359375-2.3125-17.179688 0-35.589843 28.953124-64.550781 64.546874-64.550781s64.546876 28.960938 64.546876 64.550781c0 5.789063-.773438 11.542969-2.289063 17.089844-1 3.640625-4.785156 5.746094-8.386719 4.785156-3.636718-1-5.777344-4.753906-4.785156-8.386718 1.199219-4.378906 1.808594-8.914063 1.808594-13.484375 0-28.066407-22.835938-50.902344-50.894532-50.902344-28.058593 0-50.894531 22.835937-50.894531 50.902344 0 4.597656.613281 9.164062 1.820313 13.566406 1 3.632813-1.132813 7.390625-4.773438 8.386719-.597656.164062-1.210937.242187-1.8125.242187zm136.214844-.351562c-.414062 0-.828125-.035157-1.246094-.113281-3.707031-.6875-6.160156-4.246094-5.476562-7.953126.835937-4.519531 1.261718-9.152343 1.261718-13.78125 0-33.851562-22.792968-63.664062-55.421874-72.496093-3.640626-.980469-5.792969-4.734375-4.804688-8.367188.980469-3.65625 4.757812-5.820312 8.367188-4.808593 38.574218 10.433593 65.511718 45.667968 65.511718 85.675781 0 5.453125-.5 10.925781-1.484375 16.257812-.609375 3.285157-3.480469 5.585938-6.707031 5.585938zm0 0"/><path d="m269.226562 182.566406c-1.933593 0-3.78125-.820312-5.074218-2.257812l-47.308594-52.566406c-1.804688-2.007813-2.257812-4.882813-1.160156-7.347657 1.09375-2.460937 3.542968-4.046875 6.234375-4.046875h94.613281c2.695312 0 5.140625 1.585938 6.234375 4.046875 1.101563 2.464844.644531 5.339844-1.160156 7.347657l-47.308594 52.566406c-1.289063 1.4375-3.136719 2.257812-5.070313 2.257812zm-31.980468-52.566406 31.980468 35.53125 31.980469-35.53125zm0 0"/><path d="m316.535156 130h-94.617187c-2.445313 0-4.707031-1.308594-5.917969-3.433594-1.222656-2.121094-1.207031-4.734375.027344-6.839844l15.984375-27.308593c1.226562-2.09375 3.46875-3.378907 5.894531-3.378907h62.640625c2.425781 0 4.664063 1.289063 5.890625 3.378907l15.988281 27.308593c1.234375 2.105469 1.246094 4.71875.027344 6.839844-1.210937 2.125-3.472656 3.433594-5.917969 3.433594zm-82.707031-13.652344h70.796875l-7.992188-13.65625h-54.8125zm0 0"/><path d="m337.992188 389.414062h-137.53125c-41.136719 0-74.59375-33.460937-74.59375-74.59375v-61.300781c0-3.773437 3.050781-6.828125 6.824218-6.828125h273.070313c3.773437 0 6.824219 3.054688 6.824219 6.828125v61.300781c0 41.132813-33.457032 74.59375-74.59375 74.59375zm-198.472657-129.066406v54.472656c0 33.601563 27.339844 60.941407 60.941407 60.941407h137.53125c33.601562 0 60.941406-27.34375 60.941406-60.941407v-54.472656zm0 0"/><path d="m132.691406 260.347656c-73.164062 0-132.691406-58.328125-132.691406-130.027344 0-71.703124 59.527344-130.027343 132.691406-130.027343 3.773438 0 6.828125 3.054687 6.828125 6.828125v246.398437c0 3.773438-3.054687 6.828125-6.828125 6.828125zm-6.824218-246.214844c-62.472657 3.472657-112.214844 54.261719-112.214844 116.1875 0 61.925782 49.742187 112.710938 112.214844 116.183594zm0 0"/><path d="m282.878906 287.011719h-109.226562c-3.773438 0-6.824219-3.050781-6.824219-6.824219s3.050781-6.828125 6.824219-6.828125h109.226562c3.773438 0 6.828125 3.054687 6.828125 6.828125s-3.054687 6.824219-6.828125 6.824219zm0 0"/><path d="m204.375 355.28125c-24.46875 0-44.375-19.90625-44.375-44.375 0-3.773438 3.054688-6.828125 6.828125-6.828125s6.824219 3.054687 6.824219 6.828125c0 16.941406 13.78125 30.71875 30.722656 30.71875 3.773438 0 6.824219 3.054688 6.824219 6.828125s-3.050781 6.828125-6.824219 6.828125zm0 0"/>
		</g>
	</symbol>


	<!-- posts -->
	<symbol id="fav" viewBox="0 0 391.837 391.837">
		<g>
			<path d="M285.257,35.528c58.743,0.286,106.294,47.836,106.58,106.58
				c0,107.624-195.918,214.204-195.918,214.204S0,248.165,0,142.108c0-58.862,47.717-106.58,106.58-106.58l0,0
				c36.032-0.281,69.718,17.842,89.339,48.065C215.674,53.517,249.273,35.441,285.257,35.528z"/>
		</g>
	</symbol>
	<symbol id="vip" viewBox="0 0 512 512">
		<g>
			<path style="fill:#FFDB0C;" d="M466.089,139.805c-25.928,25.928-67.967,25.928-93.895,0s-25.928-67.967,0-93.895L326.284,0
			L0,326.284l45.911,45.911c25.928-25.928,67.967-25.928,93.895,0s25.928,67.967,0,93.895l45.91,45.91L512,185.716L466.089,139.805z"
			/>
			<path style="fill:#FBBF00;" d="M466.089,139.805c-25.928,25.928-67.967,25.928-93.895,0L139.806,372.194
			c25.928,25.928,25.928,67.967,0,93.895L185.716,512L512,185.716L466.089,139.805z"/>
			<g>
				<path style="fill:#FFFFFF;" d="M180.791,284.996l45.223,24.408l-24.559-45.072l15.35-15.348l33.615,72.698l-12.127,12.128
					l-72.924-33.391L180.791,284.996z"/>
				<path style="fill:#FFFFFF;" d="M281.416,290.688l-53.158-53.158l14.6-14.6l53.158,53.158L281.416,290.688z"/>
				<path style="fill:#FFFFFF;" d="M312.635,259.468l-53.156-53.157l22.908-22.91c10.406-10.406,27.254-8.535,36.313,0.523
					c9.434,9.434,11.381,25.457,0.898,35.938l-8.686,8.686l16.322,16.322L312.635,259.468z M298.186,215.818l7.711-7.711
					c1.797-1.797,2.246-5.091-2.021-9.358c-4.418-4.417-7.936-3.444-9.732-1.647l-7.338,7.338L298.186,215.818z"/>
			</g>
		</g>
	</symbol>
	<symbol id="zoom" viewBox="0 0 512 512">
		<g>
			<path d="M128,32V0H16C7.163,0,0,7.163,0,16v112h32V54.56L180.64,203.2l22.56-22.56L54.56,32H128z"/>
			<path d="M496,0H384v32h73.44L308.8,180.64l22.56,22.56L480,54.56V128h32V16C512,7.163,504.837,0,496,0z"/>
			<path d="M480,457.44L331.36,308.8l-22.56,22.56L457.44,480H384v32h112c8.837,0,16-7.163,16-16V384h-32V457.44z"/>
			<path d="M180.64,308.64L32,457.44V384H0v112c0,8.837,7.163,16,16,16h112v-32H54.56L203.2,331.36L180.64,308.64z"/>
		</g>
	</symbol>

	<!-- modal -->
	<symbol id="x" viewBox="0 0 496.096 496.096">
		<g>
			<path d="M259.41,247.998L493.754,13.654c3.123-3.124,3.123-8.188,0-11.312c-3.124-3.123-8.188-3.123-11.312,0L248.098,236.686
			L13.754,2.342C10.576-0.727,5.512-0.639,2.442,2.539c-2.994,3.1-2.994,8.015,0,11.115l234.344,234.344L2.442,482.342
			c-3.178,3.07-3.266,8.134-0.196,11.312s8.134,3.266,11.312,0.196c0.067-0.064,0.132-0.13,0.196-0.196L248.098,259.31
			l234.344,234.344c3.178,3.07,8.242,2.982,11.312-0.196c2.995-3.1,2.995-8.016,0-11.116L259.41,247.998z"/>
		</g>
	</symbol>
	<symbol id="arr_left" viewBox="0 0 330 330">
		<g>
			<path id="XMLID_28_" d="M315,150H51.213l49.393-49.394c5.858-5.857,5.858-15.355,0-21.213c-5.857-5.857-15.355-5.857-21.213,0
			l-75,75c-5.858,5.857-5.858,15.355,0,21.213l75,75C82.323,253.535,86.161,255,90,255c3.839,0,7.678-1.465,10.606-4.394
			c5.858-5.857,5.858-15.355,0-21.213L51.213,180H315c8.284,0,15-6.716,15-15S323.284,150,315,150z"/>
		</g>
	</symbol>

	<!-- navigation: auth-dropdown -->
	<symbol id="arr_down" viewBox="0 0 551.13 551.13">
		<g>
			<path d="m275.565 361.679-223.897-223.896h-51.668l275.565 275.565 275.565-275.565h-51.668z"/>
		</g>
	</symbol>
	<symbol id="user-thin" viewBox="0 0 480 480">
		<g>
			<path d="M240,0C107.664,0,0,107.664,0,240c0,57.96,20.656,111.184,54.992,152.704c0.088,0.12,0.096,0.272,0.192,0.384
			c24.792,29.896,55.928,52.816,90.624,67.624c0.4,0.168,0.792,0.352,1.192,0.52c2.808,1.184,5.648,2.28,8.496,3.352
			c1.12,0.424,2.24,0.856,3.376,1.264c2.456,0.88,4.928,1.712,7.416,2.512c1.592,0.512,3.184,1.016,4.792,1.496
			c2.2,0.656,4.408,1.288,6.632,1.888c1.952,0.528,3.92,1.016,5.888,1.488c1.992,0.48,3.992,0.96,6,1.384
			c2.24,0.48,4.504,0.904,6.776,1.32c1.824,0.336,3.64,0.688,5.48,0.984c2.52,0.408,5.056,0.728,7.6,1.056
			c1.64,0.208,3.272,0.448,4.92,0.624c2.88,0.304,5.784,0.52,8.696,0.72c1.352,0.096,2.696,0.24,4.056,0.312
			c4.248,0.24,8.544,0.368,12.872,0.368s8.624-0.128,12.888-0.352c1.36-0.072,2.704-0.216,4.056-0.312
			c2.912-0.208,5.816-0.416,8.696-0.72c1.648-0.176,3.28-0.416,4.92-0.624c2.544-0.328,5.08-0.648,7.6-1.056
			c1.832-0.296,3.656-0.648,5.48-0.984c2.264-0.416,4.528-0.84,6.776-1.32c2.008-0.432,4-0.904,6-1.384
			c1.968-0.48,3.936-0.968,5.888-1.488c2.224-0.592,4.432-1.232,6.632-1.888c1.608-0.48,3.2-0.984,4.792-1.496
			c2.488-0.8,4.96-1.632,7.416-2.512c1.128-0.408,2.248-0.84,3.376-1.264c2.856-1.072,5.688-2.176,8.496-3.352
			c0.4-0.168,0.792-0.352,1.192-0.52c34.688-14.808,65.832-37.728,90.624-67.624c0.096-0.112,0.104-0.272,0.192-0.384
			C459.344,351.184,480,297.96,480,240C480,107.664,372.336,0,240,0z M337.256,441.76c-0.12,0.056-0.232,0.12-0.352,0.176
			c-2.856,1.376-5.76,2.672-8.688,3.936c-0.664,0.28-1.32,0.568-1.984,0.848c-2.56,1.072-5.152,2.088-7.76,3.064
			c-1.088,0.408-2.176,0.808-3.272,1.192c-2.312,0.824-4.632,1.616-6.976,2.368c-1.456,0.464-2.92,0.904-4.384,1.336
			c-2.08,0.624-4.168,1.224-6.28,1.784c-1.776,0.472-3.568,0.904-5.36,1.328c-1.88,0.448-3.752,0.904-5.648,1.304
			c-2.072,0.44-4.16,0.816-6.24,1.192c-1.688,0.312-3.368,0.64-5.072,0.912c-2.344,0.368-4.712,0.664-7.072,0.96
			c-1.496,0.192-2.984,0.416-4.496,0.576c-2.696,0.288-5.416,0.472-8.128,0.664c-1.208,0.08-2.408,0.216-3.632,0.28
			c-3.96,0.208-7.928,0.32-11.912,0.32s-7.952-0.112-11.904-0.32c-1.216-0.064-2.416-0.192-3.632-0.28
			c-2.72-0.184-5.432-0.376-8.128-0.664c-1.512-0.16-3-0.384-4.496-0.576c-2.36-0.296-4.728-0.592-7.072-0.96
			c-1.704-0.272-3.384-0.6-5.072-0.912c-2.088-0.376-4.176-0.76-6.24-1.192c-1.896-0.4-3.776-0.856-5.648-1.304
			c-1.792-0.432-3.584-0.856-5.36-1.328c-2.104-0.56-4.2-1.168-6.28-1.784c-1.464-0.432-2.928-0.872-4.384-1.336
			c-2.344-0.752-4.672-1.544-6.976-2.368c-1.096-0.392-2.184-0.792-3.272-1.192c-2.608-0.976-5.2-1.992-7.76-3.064
			c-0.664-0.272-1.312-0.56-1.976-0.84c-2.928-1.256-5.832-2.56-8.696-3.936c-0.12-0.056-0.232-0.112-0.352-0.176
			c-27.912-13.504-52.568-32.672-72.576-55.952c15.464-56.944,59.24-102.848,115.56-121.112c1.112,0.68,2.272,1.288,3.416,1.928
			c0.672,0.376,1.336,0.776,2.016,1.136c2.384,1.264,4.8,2.448,7.272,3.512c1.896,0.832,3.856,1.536,5.808,2.256
			c0.384,0.136,0.768,0.288,1.152,0.424c10.848,3.84,22.456,6.04,34.6,6.04s23.752-2.2,34.592-6.04
			c0.384-0.136,0.768-0.288,1.152-0.424c1.952-0.72,3.912-1.424,5.808-2.256c2.472-1.064,4.888-2.248,7.272-3.512
			c0.68-0.368,1.344-0.76,2.016-1.136c1.144-0.64,2.312-1.248,3.432-1.936c56.32,18.272,100.088,64.176,115.56,121.112
			C389.824,409.08,365.168,428.248,337.256,441.76z M152,176c0-48.52,39.48-88,88-88s88,39.48,88,88
			c0,30.864-16.008,58.024-40.128,73.736c-3.152,2.048-6.432,3.88-9.8,5.48c-0.4,0.192-0.792,0.392-1.192,0.576
			c-23.168,10.536-50.592,10.536-73.76,0c-0.4-0.184-0.8-0.384-1.192-0.576c-3.376-1.6-6.648-3.432-9.8-5.48
			C168.008,234.024,152,206.864,152,176z M421.832,370.584c-18.136-53.552-59.512-96.832-112.376-117.392
			C330.6,234.144,344,206.64,344,176c0-57.344-46.656-104-104-104s-104,46.656-104,104c0,30.64,13.4,58.144,34.552,77.192
			c-52.864,20.568-94.24,63.84-112.376,117.392C31.672,333.792,16,288.704,16,240C16,116.488,116.488,16,240,16s224,100.488,224,224
			C464,288.704,448.328,333.792,421.832,370.584z"/>
		</g>
	</symbol>
	<symbol id="exit" viewBox="0 0 24 24">
		<g>
			<path d="m13.5 24h-11c-1.378 0-2.5-1.122-2.5-2.5v-19c0-1.378 1.122-2.5 2.5-2.5h11c1.378 0 2.5 1.122 2.5 2.5v6c0 .276-.224.5-.5.5s-.5-.224-.5-.5v-6c0-.827-.673-1.5-1.5-1.5h-11c-.827 0-1.5.673-1.5 1.5v19c0 .827.673 1.5 1.5 1.5h11c.827 0 1.5-.673 1.5-1.5v-6c0-.276.224-.5.5-.5s.5.224.5.5v6c0 1.378-1.122 2.5-2.5 2.5z"/></g><g><path d="m23.5 12.5h-15c-.276 0-.5-.224-.5-.5s.224-.5.5-.5h15c.276 0 .5.224.5.5s-.224.5-.5.5z"/></g><g><path d="m19.5 16.5c-.128 0-.256-.049-.354-.146-.195-.195-.195-.512 0-.707l3.647-3.647-3.646-3.646c-.195-.195-.195-.512 0-.707s.512-.195.707 0l4 4c.195.195.195.512 0 .707l-4 4c-.098.097-.226.146-.354.146z"/>
		</g>
	</symbol>
	<symbol id="edit" viewBox="0 -1 381.53417 381">
		<g>
			<path d="m370.589844 230.964844c-5.523438 0-10 4.476562-10 10v88.792968c-.019532 16.558594-13.4375 29.980469-30 30h-280.589844c-16.5625-.019531-29.980469-13.441406-30-30v-260.589843c.019531-16.5625 13.4375-29.980469 30-30h88.789062c5.523438 0 10-4.476563 10-10 0-5.523438-4.476562-10-10-10h-88.789062c-27.601562.03125-49.96875 22.398437-50 50v260.589843c.03125 27.601563 22.398438 49.96875 50 50h280.589844c27.601562-.03125 49.96875-22.398437 50-50v-88.789062c0-5.523438-4.476563-10.003906-10-10.003906zm0 0"/><path d="m156.367188 178.34375 146.011718-146.015625 47.089844 47.089844-146.011719 146.015625zm0 0"/><path d="m132.542969 249.257812 52.039062-14.414062-37.625-37.625zm0 0"/><path d="m362.488281 7.578125c-9.769531-9.746094-25.585937-9.746094-35.355469 0l-10.605468 10.605469 47.089844 47.089844 10.605468-10.605469c9.75-9.769531 9.75-25.585938 0-35.355469zm0 0"/>
		</g>
	</symbol>

	<!-- navigation: new-post -->
	<symbol id="plus" viewBox="0 0 512 512">
		<g>
			<path d="M257,0C116.39,0,0,114.39,0,255s116.39,257,257,257s255-116.39,255-257S397.61,0,257,0z M392,285H287v107
				c0,16.54-13.47,30-30,30c-16.54,0-30-13.46-30-30V285H120c-16.54,0-30-13.46-30-30c0-16.54,13.46-30,30-30h107V120
				c0-16.54,13.46-30,30-30c16.53,0,30,13.46,30,30v105h105c16.53,0,30,13.46,30,30S408.53,285,392,285z"/>
		</g>
	</symbol>

	<!-- new post -->
	<symbol id="camera" viewBox="0 0 74 74">
		<g id="line_icons" data-name="line icons"><path d="M71,48.153H54.786a1,1,0,0,1,0-2H70V28.25H55.2a1,1,0,0,1,0-2H71a1,1,0,0,1,1,1v19.9A1,1,0,0,1,71,48.153Z"/><path d="M65.316,61.709H8.684A6.691,6.691,0,0,1,2,55.026v-34.8a6.691,6.691,0,0,1,6.684-6.683H22.56l2.054-6.329A4.253,4.253,0,0,1,28.65,4.291H45.365a4.212,4.212,0,0,1,4.022,2.927l2.053,6.327H65.316A6.691,6.691,0,0,1,72,20.228v34.8A6.691,6.691,0,0,1,65.316,61.709ZM8.684,15.545A4.689,4.689,0,0,0,4,20.228v34.8a4.689,4.689,0,0,0,4.684,4.683H65.316A4.689,4.689,0,0,0,70,55.026v-34.8a4.689,4.689,0,0,0-4.684-4.683h-14.6a1,1,0,0,1-.951-.691l-2.28-7.021a2.245,2.245,0,0,0-2.118-1.542H28.65a2.252,2.252,0,0,0-2.135,1.55l-2.278,7.013a1,1,0,0,1-.951.691Z"/><path d="M43,10.6H31.016a1,1,0,0,1,0-2H43a1,1,0,0,1,0,2Z"/><path d="M19,48.153H3a1,1,0,0,1-1-1V27.25a1,1,0,0,1,1-1H18.534a1,1,0,0,1,0,2H4v17.9H19a1,1,0,0,1,0,2Z"/><path d="M37,58.407A21.547,21.547,0,1,1,58.547,36.86,21.571,21.571,0,0,1,37,58.407Zm0-41.094A19.547,19.547,0,1,0,56.547,36.86,19.569,19.569,0,0,0,37,17.313Z"/><path d="M37,53.532A16.672,16.672,0,1,1,53.672,36.86,16.691,16.691,0,0,1,37,53.532Zm0-31.344A14.672,14.672,0,1,0,51.672,36.86,14.689,14.689,0,0,0,37,22.188Z"/><path d="M26.9,37.86a1,1,0,0,1-1-1A11.111,11.111,0,0,1,37,25.762a1,1,0,0,1,0,2,9.108,9.108,0,0,0-9.1,9.1A1,1,0,0,1,26.9,37.86Z"/><path d="M64.983,23.011H56.31a1,1,0,0,1-1-1V18.339a1,1,0,0,1,1-1h8.673a1,1,0,0,1,1,1v3.672A1,1,0,0,1,64.983,23.011Zm-7.673-2h6.673V19.339H57.31Z"/><path d="M17.078,15.545H9.513a1,1,0,0,1-1-1V11.613A3.014,3.014,0,0,1,11.524,8.6h3.542a3.014,3.014,0,0,1,3.012,3.011v2.932A1,1,0,0,1,17.078,15.545Zm-6.565-2h5.565V11.613A1.013,1.013,0,0,0,15.066,10.6H11.524a1.013,1.013,0,0,0-1.011,1.011Z"/></g>
	</symbol>
</svg>